<?xml version="1.0" encoding="UTF-8"?>
<svg width="24px" height="24px" viewBox="0 0 24 24" version="1.1" xmlns="http://www.w3.org/2000/svg" xmlns:xlink="http://www.w3.org/1999/xlink">
    <title>Fill 3</title>
    <g id="Page-1" stroke="none" stroke-width="1" fill="none" fill-rule="evenodd">
        <g id="Desktop-(About-Us)-Copy-4" transform="translate(-456.000000, -4982.000000)" fill="#464646">
            <path d="M479.00025,4982 L457.0005,4982 C456.44775,4982 456,4982.44775 456,4982.99975 L456,5005.00025 C456,5005.55225 456.44775,5006 457.0005,5006 L468.75,5006 L468.75,4997 L465.75,4997 L465.75,4993.25 L468.75,4993.25 L468.75,4990.25 C468.75,4987.15025 470.71275,4985.62475 473.478,4985.62475 C474.8025,4985.62475 475.941,4985.72375 476.2725,4985.76725 L476.2725,4989.00725 L474.35475,4989.008 C472.851,4989.008 472.5,4989.72275 472.5,4990.77125 L472.5,4993.25 L476.25,4993.25 L475.5,4997 L472.5,4997 L472.56,5006 L479.00025,5006 C479.55225,5006 480,5005.55225 480,5005.00025 L480,4982.99975 C480,4982.44775 479.55225,4982 479.00025,4982" id="Fill-3"></path>
        </g>
    </g>
</svg>