<?xml version="1.0" encoding="UTF-8"?>
<svg width="24px" height="24px" viewBox="0 0 24 24" version="1.1" xmlns="http://www.w3.org/2000/svg" xmlns:xlink="http://www.w3.org/1999/xlink">
    <title>Fill 23</title>
    <g id="Page-1" stroke="none" stroke-width="1" fill="none" fill-rule="evenodd">
        <g id="Desktop-(About-Us)-Copy-4" transform="translate(-535.000000, -4982.000000)" fill="#464646">
            <path d="M556.230769,5004 L537.769231,5004 C537.344615,5004 537,5003.664 537,5003.25 L537,4992 L540.076923,4992 C539.676154,4992.5625 539.540769,4993.61175 539.540769,4994.27775 C539.540769,4998.294 542.9,5001.56175 547.028462,5001.56175 C551.157692,5001.56175 554.516923,4998.294 554.516923,4994.27775 C554.516923,4993.61175 554.42,4992.57825 553.923077,4992 L557,4992 L557,5003.25 C557,5003.664 556.655385,5004 556.230769,5004 M547.499634,4990 C549.985293,4990 552,4992.0149 552,4994.49963 C552,4996.9851 549.985293,4999 547.499634,4999 C545.014707,4999 543,4996.9851 543,4994.49963 C543,4992.0149 545.014707,4990 547.499634,4990 M552.8,4985 L555.2,4985 C555.6416,4985 556,4985.3584 556,4985.8 L556,4988.2 C556,4988.6416 555.6416,4989 555.2,4989 L552.8,4989 C552.3584,4989 552,4988.6416 552,4988.2 L552,4985.8 C552,4985.3584 552.3584,4985 552.8,4985 M556.147,4982 L537.853,4982 C536.27725,4982 535,4983.27425 535,4984.84625 L535,5003.15375 C535,5004.72575 536.27725,5006 537.853,5006 L556.147,5006 C557.72275,5006 559,5004.72575 559,5003.15375 L559,4984.84625 C559,4983.27425 557.72275,4982 556.147,4982" id="Fill-23"></path>
        </g>
    </g>
</svg>