<?xml version="1.0" encoding="UTF-8"?>
<svg width="24px" height="20px" viewBox="0 0 24 20" version="1.1" xmlns="http://www.w3.org/2000/svg" xmlns:xlink="http://www.w3.org/1999/xlink">
    <title>Fill 1</title>
    <g id="Page-1" stroke="none" stroke-width="1" fill="none" fill-rule="evenodd">
        <g id="Desktop-(About-Us)-Copy-4" transform="translate(-497.000000, -4983.000000)" fill="#464646">
            <path d="M521,4985.36724 C520.11725,4985.7687 519.16775,4986.04018 518.17175,4986.16247 C519.18875,4985.5372 519.9695,4984.54816 520.337,4983.36916 C519.386,4983.94751 518.3315,4984.36743 517.21025,4984.59431 C516.31175,4983.61296 515.03225,4983 513.61625,4983 C510.89675,4983 508.6925,4985.26033 508.6925,4988.04903 C508.6925,4988.44434 508.736,4988.82965 508.82,4989.19958 C504.72725,4988.98885 501.0995,4986.97847 498.671,4983.92367 C498.24725,4984.66968 498.00425,4985.5372 498.00425,4986.46241 C498.00425,4988.21361 498.8735,4989.75947 500.19425,4990.66468 C499.38725,4990.63853 498.62825,4990.41165 497.9645,4990.03326 C497.96375,4990.0548 497.96375,4990.07556 497.96375,4990.0971 C497.96375,4992.54355 499.661,4994.58393 501.914,4995.04768 C501.50075,4995.16305 501.06575,4995.22457 500.6165,4995.22457 C500.29925,4995.22457 499.991,4995.19304 499.69025,4995.13459 C500.3165,4997.14036 502.13525,4998.60008 504.29,4998.64084 C502.60475,4999.99519 500.4815,5000.80196 498.1745,5000.80196 C497.777,5000.80196 497.3855,5000.77812 497,5000.73197 C499.17875,5002.16401 501.767,5003 504.548,5003 C513.605,5003 518.55725,4995.30609 518.55725,4988.6343 C518.55725,4988.41511 518.55275,4988.19746 518.543,4987.98058 C519.50525,4987.26918 520.34,4986.38012 521,4985.36724" id="Fill-1"></path>
        </g>
    </g>
</svg>